<?xml version="1.0" standalone="no"?>
<!DOCTYPE svg PUBLIC "-//W3C//DTD SVG 20010904//EN"
 "http://www.w3.org/TR/2001/REC-SVG-20010904/DTD/svg10.dtd">
<svg version="1.0" xmlns="http://www.w3.org/2000/svg"
 width="1080.000000pt" height="1080.000000pt" viewBox="0 0 1080.000000 1080.000000"
 preserveAspectRatio="xMidYMid meet">
<metadata>
Created by potrace 1.14, written by Peter Selinger 2001-2017
</metadata>
<g transform="translate(0.000000,1080.000000) scale(0.100000,-0.100000)"
fill="#000000" stroke="none">
<path d="M0 5771 l0 -5029 406 295 c312 227 409 292 416 282 5 -8 13 -21 18
-31 5 -9 29 -23 52 -32 63 -22 353 -50 463 -44 87 5 98 8 166 48 l74 42 80 -6
c144 -12 320 -37 334 -49 9 -8 11 -24 7 -57 -11 -77 12 -149 62 -197 l44 -43
-40 0 c-50 0 -63 -16 -22 -25 17 -4 36 -15 43 -26 6 -10 22 -19 34 -19 16 0
21 -4 17 -15 -4 -10 0 -15 13 -15 10 0 34 -8 53 -19 19 -10 69 -26 110 -35 41
-9 116 -27 165 -40 113 -30 320 -60 365 -54 19 3 61 11 93 17 33 7 66 10 74 7
11 -4 13 -2 9 9 -4 10 1 15 14 15 27 0 25 26 -2 33 -18 5 -19 8 -8 21 7 9 18
16 25 16 7 0 18 7 25 15 15 18 -1 20 -18 3 -9 -9 -12 -9 -12 1 0 25 34 71 53
71 14 0 17 5 12 21 -7 20 -5 21 29 15 32 -6 36 -5 36 14 0 11 6 20 13 20 6 0
4 5 -6 11 -9 5 -22 7 -27 4 -16 -10 -12 5 11 42 15 23 39 42 77 59 71 31 133
82 168 139 44 69 60 63 153 -54 38 -47 78 -95 90 -105 27 -24 27 -35 -2 -45
-19 -8 -18 -9 11 -9 26 1 43 -8 80 -45 26 -26 52 -47 58 -47 6 0 21 11 33 24
21 22 22 28 11 63 -7 21 -16 43 -20 48 -4 6 -34 60 -65 120 -32 61 -68 126
-80 145 -12 19 -25 54 -28 76 -7 41 -6 42 27 48 44 8 323 34 726 66 363 29
761 49 780 40 8 -4 47 -10 86 -13 l72 -6 -5 58 c-4 45 -1 65 15 97 21 40 89
110 155 158 104 76 254 108 414 87 53 -7 103 -16 112 -21 212 -107 673 -292
819 -330 159 -41 502 -73 595 -56 33 6 35 9 46 64 12 62 53 181 125 367 26 66
60 155 77 197 35 93 50 176 28 162 -23 -15 -103 -33 -112 -25 -4 4 4 18 18 31
14 13 25 32 25 42 0 10 11 24 25 30 14 6 25 15 25 19 0 4 10 9 23 13 36 9 177
160 177 189 0 17 -82 60 -105 55 -20 -4 -23 -19 -10 -50 9 -24 -140 -174 -159
-159 -9 8 -23 -5 -54 -53 -40 -61 -114 -127 -177 -159 -42 -21 -238 -48 -273
-37 -16 4 -35 4 -42 0 -14 -8 -49 -2 -67 12 -6 5 -20 8 -31 6 -10 -2 -26 3
-36 11 -14 12 -19 11 -34 -3 -10 -9 -32 -16 -48 -16 -30 0 -83 -47 -77 -67 2
-6 -14 -18 -37 -27 -22 -9 -40 -21 -40 -27 0 -6 -8 -8 -19 -4 -10 3 -24 -1
-31 -10 -7 -8 -21 -15 -32 -15 -11 0 -26 -7 -34 -15 -10 -9 -25 -12 -44 -9
-17 4 -41 0 -61 -10 -18 -9 -40 -16 -49 -16 -10 0 -28 -8 -41 -19 -13 -10 -35
-22 -49 -26 -14 -4 -31 -16 -38 -26 -7 -11 -22 -19 -32 -19 -10 0 -23 -7 -28
-16 -18 -32 -126 -13 -169 30 -20 20 -29 24 -40 15 -10 -9 -27 -7 -71 9 -31
11 -81 22 -111 26 -30 3 -58 10 -61 16 -4 7 -54 11 -136 11 -102 1 -133 4
-146 16 -26 23 -105 9 -191 -34 -137 -68 -146 -73 -154 -86 -15 -24 -78 -64
-128 -82 -27 -9 -58 -21 -68 -26 -9 -5 -28 -7 -42 -3 -19 5 -25 2 -25 -10 0
-21 -59 -75 -82 -76 -24 0 -68 -21 -68 -33 0 -5 -12 -21 -27 -35 -24 -22 -30
-23 -59 -13 -17 6 -39 9 -48 5 -9 -3 -16 -1 -16 5 0 6 -11 11 -24 11 -13 0
-29 7 -36 15 -8 10 -31 14 -75 14 -35 -1 -71 4 -82 9 -10 6 -82 8 -170 6 -137
-3 -153 -2 -165 14 -17 23 -87 66 -95 58 -4 -3 -1 -6 6 -6 20 0 2 -19 -38 -39
-36 -19 -37 -19 -61 1 -17 13 -19 18 -7 14 9 -3 17 -1 17 4 0 6 -10 10 -22 10
-12 0 -30 8 -41 17 -20 17 -20 17 -14 0 11 -29 -3 -41 -20 -17 -11 15 -12 25
-5 32 13 13 -14 59 -32 57 -27 -3 -36 2 -36 22 0 11 -4 17 -10 14 -6 -3 -10 3
-10 13 0 11 7 22 15 26 19 7 19 36 0 36 -8 0 -15 6 -15 14 0 15 -37 56 -66 72
-10 6 -23 24 -29 40 -12 39 -15 41 -25 24 -7 -12 -12 -12 -28 3 -10 9 -26 17
-34 17 -27 0 -48 11 -48 26 0 8 -6 14 -14 14 -7 0 -25 10 -40 21 -17 13 -57
27 -101 34 -41 7 -100 25 -131 39 -31 14 -71 26 -89 26 -24 0 -35 5 -37 18 -3
15 -4 15 -10 1 -4 -9 20 -54 63 -120 38 -57 69 -108 69 -114 0 -11 -71 63
-132 136 -20 24 -54 64 -77 88 -22 24 -43 52 -46 62 -6 19 -17 24 -27 13 -6
-6 29 -72 105 -193 42 -67 49 -91 28 -91 -4 0 -20 19 -37 41 -16 23 -59 74
-95 114 -91 100 -363 493 -364 525 -1 37 -27 78 -87 141 -66 68 -112 151 -104
184 8 32 57 58 88 46 23 -9 88 -90 88 -110 0 -6 5 -11 10 -11 6 0 24 -21 41
-48 27 -41 30 -43 24 -17 -3 17 -7 44 -8 60 -3 35 22 117 32 110 4 -2 15 12
24 31 20 41 23 95 5 92 -8 -2 -15 12 -18 32 -8 53 -22 70 -73 85 -45 13 -49
13 -69 -7 -21 -21 -24 -19 -43 17 -3 6 -8 3 -12 -5 -4 -8 -13 91 -19 220 -12
237 -25 397 -43 525 -6 39 -16 112 -23 164 -11 81 -13 90 -20 60 -3 -19 -4
-79 -1 -134 6 -117 -12 -286 -35 -333 -15 -28 -21 -32 -44 -27 l-27 6 2 -104
c2 -64 8 -111 15 -120 14 -16 6 -97 -9 -97 -5 0 -7 -11 -3 -25 12 -49 -15 -24
-90 81 -60 84 -74 110 -66 124 10 19 4 30 -17 30 -18 0 -115 -69 -135 -95 -9
-11 -19 -52 -22 -90 l-7 -70 71 -99 c38 -55 70 -106 70 -113 0 -7 5 -13 10
-13 6 0 10 -5 10 -11 0 -6 11 -25 25 -43 33 -43 32 -56 -1 -25 -17 16 -25 19
-23 9 5 -26 -11 -70 -26 -70 -18 0 -19 12 -4 27 13 13 5 43 -11 43 -6 0 -13
-13 -16 -30 -8 -37 -15 -37 -146 -5 -99 24 -178 34 -133 16 11 -5 23 -7 27 -4
5 2 8 -1 8 -7 0 -5 28 -23 62 -38 43 -20 56 -30 45 -35 -9 -3 -14 -13 -11 -20
4 -12 -4 -13 -48 -6 -29 5 -62 12 -73 17 -35 16 -91 32 -110 32 -11 0 -80 21
-155 46 -148 50 -154 53 -221 83 -25 12 -48 21 -52 21 -18 0 -177 84 -178 94
0 6 -2 40 -4 76 -2 36 -7 99 -10 141 -5 54 -2 94 10 140 26 106 138 452 361
1124 51 152 133 391 188 545 31 85 72 202 92 260 58 168 131 331 174 385 22
28 73 93 114 145 129 167 228 245 411 324 165 71 267 92 719 146 141 17 195
28 252 51 103 41 171 52 241 40 89 -17 177 -13 245 10 63 21 194 34 202 20 3
-4 -49 -64 -115 -132 -132 -137 -159 -176 -188 -267 -11 -33 -34 -93 -51 -132
-75 -171 -147 -412 -184 -615 -9 -49 -21 -106 -26 -125 -42 -155 -74 -551 -54
-672 5 -28 13 -39 35 -48 16 -7 29 -18 29 -26 0 -15 30 -34 54 -34 23 0 19 26
-6 45 -30 20 -35 81 -26 290 9 198 16 250 83 589 49 247 77 349 149 546 25 67
53 157 71 230 19 74 48 118 100 150 19 12 67 64 106 116 39 52 74 94 79 94 4
0 29 21 54 46 38 39 48 45 60 35 33 -28 55 -135 33 -158 -12 -12 -7 -66 10
-111 14 -38 15 -56 6 -118 -6 -43 -22 -97 -39 -130 -26 -52 -27 -58 -16 -112
6 -31 16 -133 22 -227 13 -207 34 -358 60 -443 11 -35 20 -77 20 -93 0 -19 5
-29 15 -29 12 0 13 9 8 45 -4 31 -2 45 6 45 6 0 11 -6 11 -12 0 -17 129 -153
175 -183 43 -30 51 -31 65 -6 5 11 19 23 31 26 15 5 18 10 10 18 -16 16 -14
25 10 32 16 5 18 9 9 15 -7 4 -10 17 -7 29 3 14 -2 26 -16 36 -30 21 -10 40
26 26 15 -6 34 -8 43 -4 25 9 8 50 -57 136 -32 44 -59 85 -59 92 0 7 -7 18
-15 25 -8 7 -15 21 -15 31 0 11 -7 19 -15 19 -8 0 -15 6 -15 13 0 7 -9 20 -20
30 -11 9 -20 25 -20 35 0 10 -4 22 -9 28 -16 17 -62 144 -56 154 3 5 1 19 -5
30 -16 29 -15 221 1 230 6 5 9 15 6 25 -4 9 -11 13 -17 10 -13 -8 -13 1 0 26
14 25 46 24 53 -2 3 -11 14 -23 25 -26 11 -2 29 -17 40 -32 11 -16 34 -31 51
-34 43 -9 238 -205 242 -244 2 -21 142 -130 209 -161 74 -36 77 -36 207 -37
109 0 135 3 148 16 15 15 15 17 -9 23 -16 4 -38 0 -56 -9 -27 -14 -38 -14
-108 0 -165 35 -192 43 -192 56 0 5 -8 9 -18 9 -19 0 -42 18 -42 33 0 5 12 6
26 3 14 -4 31 -3 37 2 15 12 77 12 77 0 0 -5 7 -5 16 0 9 5 35 5 58 1 41 -7
174 4 250 21 54 13 123 13 131 0 10 -17 25 -1 25 26 0 18 5 24 18 22 9 -1 39
8 65 21 36 18 53 33 68 65 10 22 39 62 64 88 24 26 49 57 55 68 7 13 21 20 40
20 23 0 30 5 30 19 0 24 19 39 59 47 17 4 40 18 51 31 14 18 25 23 40 18 24
-8 25 -18 5 -35 -21 -18 -19 -39 6 -48 19 -7 19 -9 5 -21 -9 -8 -16 -22 -16
-33 0 -10 -7 -21 -15 -24 -8 -4 -15 -18 -15 -32 0 -14 -13 -54 -30 -89 -16
-34 -30 -71 -30 -81 0 -10 -4 -22 -9 -27 -5 -6 -14 -28 -21 -50 -7 -22 -16
-42 -19 -45 -4 -3 -14 -17 -24 -32 -10 -16 -24 -28 -32 -28 -8 0 -15 -9 -15
-20 0 -17 -3 -19 -19 -11 -22 12 -31 5 -31 -26 0 -16 -6 -23 -20 -23 -13 0
-20 -7 -20 -18 0 -10 -5 -23 -10 -28 -6 -6 -12 -21 -15 -33 -2 -13 -12 -29
-21 -36 -12 -8 -14 -14 -6 -19 19 -11 14 -55 -8 -83 -24 -31 -25 -37 -3 -58
15 -15 17 -15 25 -1 5 9 18 16 28 16 11 0 24 9 30 20 15 28 32 15 23 -18 -4
-15 -6 -35 -6 -44 1 -9 -5 -19 -13 -22 -9 -3 -13 -10 -10 -15 3 -5 -6 -21 -19
-35 -30 -33 -31 -36 -5 -36 11 0 20 5 20 11 0 6 8 8 18 5 12 -4 22 3 33 23 17
30 97 68 122 58 10 -4 16 -35 20 -119 5 -119 -4 -169 -55 -293 -11 -27 -23
-66 -25 -85 -5 -34 -46 -151 -85 -240 -11 -25 -39 -72 -62 -105 -45 -64 -109
-175 -125 -219 -15 -38 1 -32 18 6 17 38 149 258 165 274 6 6 22 27 36 47 30
45 39 46 46 7 4 -17 13 -30 21 -30 12 0 14 15 10 81 -4 65 -2 79 9 75 11 -4
14 5 14 37 0 95 41 278 79 358 22 44 59 251 81 444 6 55 15 134 20 175 5 41
12 98 14 125 2 28 7 57 10 65 3 8 12 112 20 231 8 118 20 227 25 243 6 15 11
37 11 48 0 18 -5 16 -38 -16 -21 -21 -48 -43 -59 -49 -56 -32 -112 -73 -113
-83 0 -13 -22 -24 -47 -24 -11 0 -13 4 -6 13 5 6 16 38 23 70 7 31 17 57 22
57 4 0 8 7 8 15 0 60 -228 -97 -246 -170 -3 -13 -16 -26 -29 -29 -13 -3 -37
-23 -54 -44 -61 -77 -278 -156 -416 -150 -33 1 -63 7 -67 13 -6 7 -10 6 -16
-2 -19 -30 -287 70 -312 117 -6 11 -18 20 -26 20 -8 0 -21 15 -29 34 -8 19
-20 38 -26 42 -6 3 -17 22 -25 41 -8 18 -26 39 -39 45 -29 13 -32 30 -7 54 17
17 28 109 12 99 -11 -7 -70 46 -70 62 0 6 -6 16 -14 20 -8 4 -15 17 -17 27 -2
11 -10 21 -18 24 -10 3 -12 -1 -8 -17 4 -11 10 -30 13 -42 6 -17 3 -20 -12
-17 -14 2 -20 13 -22 46 -3 35 -7 42 -24 42 -14 0 -18 5 -14 16 5 13 1 14 -23
9 -24 -5 -30 -2 -35 13 -4 11 -6 24 -5 28 6 36 -2 44 -45 44 -40 0 -45 3 -55
30 -5 17 -14 31 -18 31 -59 9 -59 8 -55 -21 2 -15 -1 -31 -7 -34 -6 -4 -11 0
-11 8 0 34 -20 14 -21 -21 -1 -22 -3 -29 -6 -18 -3 11 -15 31 -26 45 -20 23
-32 42 -56 88 -39 74 -108 284 -126 384 -62 335 -67 379 -72 547 -4 114 -1
199 6 245 14 82 61 239 73 244 4 2 8 14 8 27 0 12 7 28 15 35 8 7 15 20 15 29
1 26 27 54 45 47 9 -3 13 -10 10 -16 -4 -6 -11 -8 -16 -5 -5 4 -9 -5 -9 -19 0
-14 5 -26 11 -26 7 0 21 -10 33 -23 23 -25 23 -62 0 -53 -8 3 -14 -1 -14 -8 0
-9 8 -12 24 -9 34 7 85 -25 79 -48 -3 -11 -9 -19 -14 -19 -17 0 -9 -27 14 -48
15 -15 36 -22 61 -22 20 0 54 -9 74 -19 27 -14 50 -18 83 -14 30 3 56 0 75
-10 16 -8 68 -18 114 -22 47 -4 98 -13 114 -21 16 -8 35 -14 42 -14 19 0 27
-19 14 -35 -15 -18 -110 -18 -219 1 -45 7 -87 11 -92 8 -28 -17 13 -41 86 -50
22 -3 46 -7 53 -9 7 -3 70 -7 140 -11 98 -4 137 -2 170 9 24 8 51 13 61 10 16
-4 17 -8 4 -56 -19 -75 8 -92 41 -25 6 12 22 24 34 26 16 2 22 10 22 28 0 17
5 24 20 24 21 0 27 14 11 25 -6 3 -27 1 -49 -3 -33 -8 -42 -6 -53 9 -7 10 -15
16 -19 14 -3 -2 -4 15 -2 36 3 29 8 39 18 35 7 -3 16 4 20 16 6 21 7 21 20 3
12 -16 14 -16 19 -2 7 16 -19 48 -54 66 -11 6 -21 21 -23 33 -3 19 -35 46 -78
64 -8 4 -37 17 -65 29 -77 35 -230 59 -342 53 -78 -4 -96 -3 -100 10 -4 8 -1
23 5 33 9 13 8 19 -1 22 -21 7 1 20 40 23 21 2 55 8 77 13 21 5 45 7 53 4 8
-3 19 0 23 7 13 20 129 -5 203 -44 35 -19 79 -37 98 -41 113 -23 153 -14 162
34 6 30 -10 89 -32 115 -13 15 -15 15 -34 -1 -20 -17 -20 -17 -14 0 4 11 3 16
-3 12 -10 -6 -70 24 -70 36 0 4 -28 10 -63 14 -34 4 -100 20 -147 36 -47 16
-93 29 -103 29 -10 0 -37 11 -61 24 -39 22 -47 23 -87 12 -24 -6 -58 -19 -74
-28 -25 -13 -33 -14 -48 -3 -10 7 -19 21 -21 31 -3 11 -7 27 -11 36 -4 11 0
20 14 27 34 19 36 49 6 81 -21 22 -25 32 -17 46 5 11 7 32 5 49 -2 16 0 38 6
50 6 11 15 32 21 48 5 15 14 27 19 27 5 0 12 9 16 19 3 11 27 41 53 67 28 29
46 55 44 66 -2 10 2 18 7 18 6 0 24 13 41 28 16 16 45 37 65 47 20 11 35 27
35 38 0 10 7 20 15 23 8 4 15 14 15 24 0 10 9 20 20 23 11 3 20 14 20 24 0 26
19 43 47 43 16 0 23 6 23 20 0 14 11 22 41 30 23 6 39 16 36 23 -5 17 56 35
108 32 34 -3 45 0 45 11 0 8 5 15 10 15 24 3 36 2 54 -6 13 -6 32 -1 60 13 50
27 176 32 176 8 0 -10 12 -13 40 -12 23 1 50 -4 60 -11 11 -8 31 -11 46 -9 17
3 37 -2 55 -14 32 -23 57 -25 84 -6 20 13 60 22 149 33 43 5 51 3 67 -18 12
-15 22 -20 26 -14 9 12 43 13 60 2 6 -4 29 -9 50 -11 43 -3 86 -23 79 -35 -8
-13 26 -37 54 -39 13 0 31 4 39 11 12 10 13 6 8 -29 -5 -31 -3 -45 9 -54 8 -7
12 -20 9 -28 -3 -9 6 -39 20 -69 15 -29 23 -57 20 -63 -3 -6 3 -35 14 -66 16
-42 19 -60 11 -75 -16 -29 -6 -37 56 -45 33 -4 52 -10 46 -16 -12 -12 33 -104
55 -113 16 -6 15 -8 -6 -16 -19 -8 -21 -12 -11 -24 7 -8 16 -12 21 -9 5 3 9
-1 9 -8 0 -10 2 -10 9 1 8 13 12 0 27 -100 4 -22 1 -39 -5 -43 -16 -11 -13
-73 5 -101 11 -17 13 -29 6 -38 -5 -6 -13 -26 -16 -43 -6 -26 -11 -31 -29 -27
-12 3 -27 11 -32 18 -6 7 -21 16 -35 20 -14 4 -32 13 -40 20 -32 27 -129 16
-137 -17 -6 -21 -7 -22 -33 -6 -15 10 -22 9 -37 -4 -10 -9 -36 -18 -58 -21
-22 -4 -82 -13 -133 -21 -52 -8 -101 -12 -108 -9 -8 3 -26 -4 -39 -17 -22 -20
-23 -21 -28 -3 -4 16 -6 15 -12 -5 -5 -14 -13 -21 -22 -18 -19 8 -51 -48 -45
-80 7 -39 54 -58 121 -49 31 3 72 6 91 6 19 0 66 11 103 25 78 30 110 28 169
-11 21 -14 44 -25 52 -25 22 0 30 -19 12 -26 -24 -9 -20 -37 4 -31 13 3 20 0
20 -10 0 -11 -7 -13 -30 -8 -20 4 -30 3 -30 -5 0 -6 -8 -9 -17 -6 -25 7 -191
7 -234 0 -21 -3 -39 -2 -43 4 -9 14 -77 3 -98 -16 -12 -10 -28 -12 -51 -8 -19
4 -47 2 -62 -4 -26 -10 -27 -12 -12 -28 15 -16 15 -20 1 -34 -19 -18 -20 -75
-4 -152 13 -64 44 -101 108 -132 71 -34 384 -27 507 11 30 9 68 32 95 56 42
38 48 40 91 35 30 -4 55 -2 72 7 16 8 51 13 87 11 33 -1 62 2 66 7 10 16 24
-1 24 -30 0 -16 -6 -34 -14 -41 -8 -6 -12 -18 -10 -25 8 -19 32 6 59 57 l19
38 14 -26 c7 -14 11 -32 8 -39 -3 -8 2 -35 11 -60 10 -32 13 -61 9 -93 -4 -26
-7 -56 -7 -67 0 -11 -6 -30 -14 -42 -8 -12 -15 -34 -15 -49 0 -15 -7 -35 -15
-44 -12 -13 -16 -40 -24 -158 -1 -6 -7 -11 -13 -10 -9 2 -13 -12 -14 -42 -2
-48 -24 -142 -41 -175 -6 -11 -16 -42 -22 -70 -14 -60 -81 -202 -125 -265 -18
-25 -49 -75 -69 -112 -21 -37 -42 -70 -48 -74 -6 -3 -23 -24 -39 -45 l-28 -40
32 -57 c53 -94 66 -110 94 -116 70 -17 262 -84 407 -143 382 -156 480 -189
655 -223 145 -28 214 -52 355 -122 l122 -61 1442 564 1441 564 0 1828 0 1827
-5400 0 -5400 0 0 -5029z m6035 3909 c3 -5 1 -10 -4 -10 -6 0 -11 5 -11 10 0
6 2 10 4 10 3 0 8 -4 11 -10z m-2210 -960 c7 -22 -4 -50 -19 -50 -19 0 -56 44
-48 56 17 27 58 24 67 -6z m365 -39 c0 -5 -7 -14 -15 -21 -8 -7 -15 -10 -15
-7 0 3 -3 12 -6 21 -4 12 0 16 15 16 12 0 21 -4 21 -9z m9 -83 c-1 -13 2 -31
6 -41 4 -10 5 -21 1 -24 -15 -15 -71 -10 -93 7 -22 17 -22 19 -5 24 10 4 29
18 42 31 30 31 52 33 49 3z m2891 -80 c26 -28 36 -66 21 -81 -8 -8 -14 -8 -23
1 -18 18 -41 15 -78 -13 -40 -29 -60 -32 -55 -7 2 9 7 33 10 53 4 29 13 40 38
53 44 21 63 20 87 -6z m-2750 -8 c0 -5 -9 -10 -21 -10 -11 0 -17 5 -14 10 3 6
13 10 21 10 8 0 14 -4 14 -10z m2692 -160 c-3 -40 -28 -100 -42 -100 -6 0 -10
-10 -10 -22 0 -21 3 -20 30 11 17 18 30 40 30 47 0 8 4 14 9 14 4 0 16 20 25
45 10 25 22 45 27 45 11 0 12 4 -6 -54 -19 -64 -39 -97 -115 -190 -57 -70 -80
-85 -80 -51 0 7 -7 15 -15 19 -17 6 -20 47 -5 74 5 9 19 52 31 95 20 70 39
100 39 62 0 -26 21 -16 33 15 9 22 17 30 32 28 16 -2 19 -9 17 -38z m-2075
-122 c-3 -7 -5 -2 -5 12 0 14 2 19 5 13 2 -7 2 -19 0 -25z m863 -19 c0 -18 -2
-19 -15 -9 -15 12 -12 30 6 30 5 0 9 -10 9 -21z m782 -31 c-13 -13 -26 8 -17
30 6 16 7 16 17 -1 7 -13 7 -22 0 -29z m-499 -41 c27 -9 38 -27 16 -27 -6 0
-24 -11 -41 -25 -22 -19 -41 -25 -77 -25 -26 0 -61 -7 -78 -15 -24 -12 -34
-13 -56 -2 -15 6 -27 15 -27 20 0 4 -9 7 -21 7 -50 0 27 58 79 60 12 0 22 5
22 11 0 13 141 10 183 -4z m781 -52 c22 -34 21 -82 -3 -95 -12 -6 -17 -17 -14
-29 7 -26 -15 -91 -31 -91 -16 0 -1 111 16 121 7 5 9 27 5 63 -6 61 2 70 27
31z m-97 -381 c11 -30 -45 -163 -69 -164 -11 0 -10 38 1 44 7 5 21 57 27 106
1 8 2 18 3 23 2 14 32 7 38 -9z m-2149 -1050 c4 -8 7 -28 4 -43 l-4 -27 -29
27 c-16 15 -29 34 -29 43 0 21 46 21 58 0z m-21 -70 c-3 -3 -12 -4 -19 -1 -8
3 -5 6 6 6 11 1 17 -2 13 -5z m983 -474 c0 -5 -2 -10 -4 -10 -3 0 -8 5 -11 10
-3 6 -1 10 4 10 6 0 11 -4 11 -10z m-703 -46 c-3 -3 -12 -4 -19 -1 -8 3 -5 6
6 6 11 1 17 -2 13 -5z m-2604 -2555 c4 -16 3 -18 -9 -8 -16 13 -19 29 -5 29 5
0 11 -9 14 -21z m-277 -6 c16 -21 18 -37 4 -28 -13 8 -33 45 -24 45 4 0 13 -8
20 -17z m296 -140 c39 -59 57 -85 83 -121 l24 -34 -34 -34 c-55 -55 -76 -45
-144 63 -25 40 -30 57 -25 80 6 27 50 83 65 83 3 0 17 -17 31 -37z m-1215
-163 c114 -57 282 -126 403 -164 47 -15 94 -31 105 -36 11 -5 67 -23 125 -40
58 -17 113 -35 122 -40 10 -6 26 -10 36 -10 10 0 27 -7 38 -16 18 -15 18 -15
-10 -11 -21 4 -30 0 -33 -12 -4 -15 -11 -16 -61 -7 -31 6 -63 15 -69 19 -7 4
-29 10 -49 13 -44 5 -145 33 -159 44 -5 4 -23 10 -40 13 -121 22 -515 190
-536 229 -13 25 -3 68 16 68 8 0 59 -22 112 -50z m823 -121 c0 -5 -4 -9 -10
-9 -5 0 -10 7 -10 16 0 8 5 12 10 9 6 -3 10 -10 10 -16z m704 -574 c25 -47 46
-94 46 -104 0 -23 -35 -51 -63 -51 -27 0 -132 -55 -181 -94 -69 -55 -111 -76
-153 -76 -61 0 -68 15 -47 102 10 40 25 81 33 90 25 28 305 227 312 222 4 -2
28 -42 53 -89z m5191 55 c-3 -5 -11 -10 -16 -10 -6 0 -7 5 -4 10 3 6 11 10 16
10 6 0 7 -4 4 -10z m-4865 -390 c0 -5 -2 -10 -4 -10 -3 0 -8 5 -11 10 -3 6 -1
10 4 10 6 0 11 -4 11 -10z m497 -52 c12 -12 31 -22 42 -23 10 -1 34 -12 53
-26 18 -14 42 -29 53 -33 14 -5 16 -9 7 -15 -10 -6 -6 -12 12 -25 14 -9 26
-26 26 -37 0 -16 -3 -19 -12 -12 -7 6 -26 13 -43 17 -16 4 -52 15 -80 25 -27
11 -58 22 -69 25 -18 6 -18 7 -1 26 20 22 14 53 -10 44 -8 -3 -15 -12 -15 -20
0 -14 -21 -19 -32 -9 -6 6 31 85 40 85 3 0 16 -10 29 -22z m-246 -174 c43 -45
79 -84 79 -88 0 -11 -99 65 -126 97 -15 18 -31 31 -36 29 -5 -1 -6 3 -2 9 4 7
1 10 -7 7 -12 -4 -49 40 -49 58 0 16 71 -41 141 -112z m279 -54 c6 -10 10 -23
9 -27 -5 -32 39 -83 73 -83 15 0 13 5 -12 28 -22 19 -29 32 -25 45 9 22 20 21
70 -6 40 -23 88 -83 100 -127 l7 -25 -28 26 c-33 30 -73 53 -81 46 -2 -3 3
-19 11 -36 23 -43 20 -57 -14 -81 -16 -12 -30 -16 -30 -10 0 6 7 13 15 16 28
11 16 26 -15 19 -18 -4 -30 -3 -30 4 0 6 -13 25 -28 43 -16 18 -32 42 -36 53
-13 35 -26 117 -20 126 9 15 23 10 34 -11z m310 -70 c0 -5 -7 -10 -15 -10 -8
0 -15 5 -15 10 0 6 7 10 15 10 8 0 15 -4 15 -10z m-144 -478 c-4 -3 -11 -1
-17 5 -8 8 -8 15 2 26 12 13 14 13 17 -5 2 -11 1 -22 -2 -26z"/>
<path d="M1820 2889 c0 -5 5 -7 10 -4 6 3 10 8 10 11 0 2 -4 4 -10 4 -5 0 -10
-5 -10 -11z"/>
<path d="M4396 9243 c-11 -11 -6 -23 9 -23 8 0 15 4 15 9 0 13 -16 22 -24 14z"/>
<path d="M5540 8576 c0 -8 5 -18 10 -21 6 -3 10 3 10 14 0 12 -4 21 -10 21 -5
0 -10 -6 -10 -14z"/>
<path d="M5558 8483 c5 -21 7 -23 10 -9 2 10 0 22 -6 28 -6 6 -7 0 -4 -19z"/>
<path d="M5670 8390 c0 -5 5 -10 11 -10 5 0 7 5 4 10 -3 6 -8 10 -11 10 -2 0
-4 -4 -4 -10z"/>
<path d="M5510 8325 c0 -9 5 -15 11 -13 6 2 11 8 11 13 0 5 -5 11 -11 13 -6 2
-11 -4 -11 -13z"/>
<path d="M5475 8280 c-3 -5 1 -10 9 -10 9 0 16 5 16 10 0 6 -4 10 -9 10 -6 0
-13 -4 -16 -10z"/>
<path d="M5442 8223 c-13 -13 -27 -23 -32 -23 -4 0 -14 -31 -21 -69 -11 -63
-10 -72 8 -107 22 -43 53 -67 60 -46 7 19 21 14 28 -9 4 -11 20 -25 36 -31 16
-5 29 -14 29 -19 0 -5 6 -9 13 -9 10 0 13 17 11 68 -3 78 -5 87 -28 165 -12
42 -14 62 -6 76 15 29 14 31 -32 28 -29 -1 -51 -9 -66 -24z m25 -39 c-9 -9
-28 6 -21 18 4 6 10 6 17 -1 6 -6 8 -13 4 -17z"/>
<path d="M5550 7704 c0 -4 20 -29 45 -55 25 -26 45 -55 45 -64 0 -26 -26 -79
-48 -99 -21 -18 -24 -18 -74 -3 -62 19 -90 15 -193 -33 -61 -28 -76 -31 -123
-26 -29 3 -59 11 -65 16 -47 40 -61 50 -69 50 -6 0 -22 9 -38 20 -40 29 -100
36 -139 15 -27 -13 -35 -14 -48 -3 -22 18 -43 71 -43 108 0 16 -4 30 -10 30
-5 0 -10 -6 -10 -14 0 -8 -8 -22 -17 -32 -10 -10 -18 -31 -18 -48 0 -25 -5
-31 -33 -38 -18 -5 -30 -13 -27 -18 9 -15 42 -12 59 5 20 21 23 19 41 -15 13
-25 22 -30 53 -30 53 0 66 -11 57 -49 -6 -27 -4 -31 14 -31 22 0 28 19 11 36
-17 17 59 38 93 25 15 -6 27 -15 27 -21 0 -5 7 -10 15 -10 8 0 15 -4 15 -8 0
-33 173 -56 223 -30 44 23 57 28 67 28 17 0 11 -50 -6 -57 -14 -5 -12 -8 7
-19 13 -7 34 -10 46 -8 12 3 25 0 30 -8 4 -7 23 -26 42 -43 31 -28 33 -28 28
-8 -7 32 13 45 53 33 18 -5 37 -7 41 -4 12 7 -1 37 -23 52 -22 16 -24 42 -3
42 7 0 18 8 24 18 9 15 13 15 31 4 27 -17 38 -7 22 18 -9 15 -8 26 3 54 8 19
19 37 24 40 11 7 81 -117 81 -143 0 -10 11 -30 25 -45 14 -15 25 -31 25 -35 0
-5 10 -21 22 -37 33 -41 33 -75 0 -42 -17 17 -26 3 -13 -20 6 -12 11 -29 11
-39 1 -10 9 -28 19 -40 21 -25 32 -30 27 -10 -3 6 -7 27 -10 46 -5 29 -4 32 9
21 11 -9 19 -10 27 -2 15 15 -7 76 -47 133 -32 45 -39 61 -71 173 -13 47 -29
73 -73 119 -31 32 -66 70 -78 83 -20 22 -83 35 -83 18z m-105 -264 c-3 -5 -16
-10 -28 -10 -18 0 -19 2 -7 10 20 13 43 13 35 0z"/>
<path d="M4651 7418 c-14 -5 -31 -18 -38 -28 -8 -11 -20 -20 -26 -21 -18 0
-51 -47 -76 -105 -20 -45 -21 -60 -14 -120 8 -69 8 -69 41 -72 37 -4 36 -2 20
-54 -9 -29 -9 -41 0 -50 7 -7 12 -20 12 -30 0 -13 8 -18 25 -18 22 0 25 3 19
25 -5 21 -3 25 15 25 12 0 21 6 21 15 0 8 -4 15 -10 15 -5 0 -10 13 -10 29 0
17 -6 31 -15 35 -13 5 -13 9 -3 26 30 47 84 -3 60 -55 -16 -34 -15 -35 8 -35
12 0 20 -6 19 -12 -1 -7 3 -26 9 -41 7 -16 12 -36 12 -46 0 -9 7 -26 15 -37 8
-10 15 -26 15 -34 1 -8 14 -26 30 -40 17 -13 30 -30 30 -37 0 -7 10 -13 21
-13 19 0 50 -21 109 -74 27 -24 172 -48 275 -46 72 1 188 30 216 53 10 9 23
17 28 17 7 0 19 9 67 49 6 5 24 16 40 24 16 8 40 27 53 41 27 29 71 145 71
187 0 36 33 59 82 59 43 0 57 14 29 30 -11 5 -26 22 -33 38 -9 19 -22 28 -43
30 -17 2 -34 8 -40 13 -5 5 -17 9 -28 9 -10 0 -28 5 -40 12 -12 7 -55 13 -95
14 -40 1 -80 8 -88 15 -11 9 -21 9 -38 1 -14 -6 -53 -14 -88 -18 -35 -4 -73
-10 -85 -15 -14 -5 -39 -1 -74 12 -28 11 -82 23 -118 26 -36 3 -72 10 -79 16
-10 8 -16 7 -20 0 -8 -13 -132 -20 -150 -9 -6 3 -13 2 -17 -4 -8 -14 -48 -13
-63 2 -8 8 -6 17 8 36 27 33 25 65 -2 77 -17 8 -23 19 -24 48 -1 45 -3 47 -33
35z m231 -328 c21 -41 9 -62 -23 -42 -19 12 -39 9 -39 -7 0 -8 32 -23 79 -36
23 -7 24 -6 18 38 -5 35 -3 50 9 62 19 19 28 19 44 0 17 -20 33 -19 55 5 25
28 93 27 129 -1 27 -21 28 -21 60 -4 55 30 134 14 149 -29 2 -5 15 -1 30 8 16
11 34 15 47 11 16 -5 20 -15 20 -54 0 -60 -16 -76 -68 -68 -31 4 -41 1 -50
-14 -16 -25 -122 -27 -146 -4 -19 20 -23 19 -29 -5 -4 -17 -9 -18 -37 -9 -17
6 -51 9 -75 7 -41 -5 -44 -4 -47 21 -3 30 -18 32 -33 5 -5 -11 -16 -19 -22
-20 -30 -2 -34 -5 -27 -15 3 -6 15 -9 25 -6 12 3 19 0 19 -9 0 -8 9 -14 19
-14 11 0 23 -4 26 -10 3 -5 18 -9 33 -9 17 1 21 3 10 6 -29 7 -20 23 10 18 15
-3 54 -9 87 -15 33 -6 87 -8 120 -4 56 6 59 5 40 -10 -20 -15 -20 -15 3 -16
12 0 31 -6 42 -12 17 -11 22 -10 29 1 6 9 10 4 13 -18 2 -17 0 -35 -5 -40 -11
-11 -32 -46 -46 -78 -6 -13 -18 -24 -28 -24 -124 -8 -173 -6 -184 7 -7 8 -17
11 -28 6 -9 -5 -29 -5 -46 -2 l-30 7 24 10 c23 9 23 10 -23 37 -31 18 -51 39
-61 63 -10 23 -20 33 -29 30 -18 -7 -46 34 -46 68 0 40 -18 65 -46 65 -34 0
-84 27 -84 46 0 8 4 13 9 10 22 -14 41 7 41 46 0 35 2 39 23 36 13 -2 29 -16
39 -38z m730 -30 c-26 -21 -54 -17 -45 7 8 20 45 34 58 21 7 -6 2 -16 -13 -28z
m-102 -117 c-1 -5 -12 -21 -25 -38 -19 -23 -27 -27 -37 -17 -9 9 -7 17 12 37
22 24 50 34 50 18z m-70 -23 c0 -5 -4 -10 -9 -10 -6 0 -13 5 -16 10 -3 6 1 10
9 10 9 0 16 -4 16 -10z"/>
<path d="M5110 6869 c0 -5 5 -7 10 -4 6 3 10 8 10 11 0 2 -4 4 -10 4 -5 0 -10
-5 -10 -11z"/>
<path d="M5355 7290 c-3 -5 -1 -10 4 -10 6 0 11 5 11 10 0 6 -2 10 -4 10 -3 0
-8 -4 -11 -10z"/>
<path d="M4180 6965 c0 -8 2 -15 4 -15 2 0 6 7 10 15 3 8 1 15 -4 15 -6 0 -10
-7 -10 -15z"/>
<path d="M5991 6324 c0 -11 3 -14 6 -6 3 7 2 16 -1 19 -3 4 -6 -2 -5 -13z"/>
<path d="M6671 6104 c0 -11 3 -14 6 -6 3 7 2 16 -1 19 -3 4 -6 -2 -5 -13z"/>
<path d="M6680 6077 c0 -1 9 -34 20 -72 11 -39 25 -110 30 -160 5 -49 17 -160
27 -245 32 -280 18 -821 -26 -1042 l-17 -88 21 0 c74 0 106 174 122 658 4 138
2 216 -11 325 -27 223 -46 358 -60 413 -15 56 -87 212 -98 213 -5 1 -8 0 -8
-2z"/>
<path d="M5810 5940 c-13 -8 -13 -10 2 -10 9 0 20 5 23 10 8 13 -5 13 -25 0z"/>
<path d="M4838 5933 c7 -3 16 -2 19 1 4 3 -2 6 -13 5 -11 0 -14 -3 -6 -6z"/>
<path d="M4300 5416 c0 -9 5 -16 10 -16 6 0 10 4 10 9 0 6 -4 13 -10 16 -5 3
-10 -1 -10 -9z"/>
<path d="M2651 5314 c0 -11 3 -14 6 -6 3 7 2 16 -1 19 -3 4 -6 -2 -5 -13z"/>
<path d="M2616 4988 c-11 -87 -13 -159 -4 -150 10 10 24 192 15 192 -3 0 -8
-19 -11 -42z"/>
<path d="M4411 4964 c0 -11 3 -14 6 -6 3 7 2 16 -1 19 -3 4 -6 -2 -5 -13z"/>
<path d="M2478 4755 c-3 -30 1 -83 8 -117 l12 -63 1 118 c1 120 -13 161 -21
62z"/>
<path d="M2603 4755 c0 -27 2 -38 4 -22 2 15 2 37 0 50 -2 12 -4 0 -4 -28z"/>
<path d="M4294 4598 c8 -13 24 -53 36 -90 12 -38 31 -78 42 -90 18 -21 19 -21
13 -3 -4 11 -10 43 -15 70 -19 115 -29 135 -66 135 -23 0 -24 -1 -10 -22z"/>
<path d="M2582 4590 c0 -14 2 -19 5 -12 2 6 2 18 0 25 -3 6 -5 1 -5 -13z"/>
<path d="M2572 4480 c0 -19 2 -27 5 -17 2 9 2 25 0 35 -3 9 -5 1 -5 -18z"/>
<path d="M2320 4433 c0 -10 5 -25 10 -33 8 -12 10 -9 10 12 0 15 -4 30 -10 33
-5 3 -10 -2 -10 -12z"/>
<path d="M2550 4402 c0 -30 -13 -34 -27 -10 -12 20 -13 7 -9 -92 3 -63 6 -135
7 -160 1 -42 2 -40 14 26 15 87 29 254 21 254 -3 0 -6 -8 -6 -18z"/>
<path d="M5522 4349 c-26 -23 -29 -29 -14 -29 21 0 56 34 51 49 -2 5 -19 -4
-37 -20z"/>
<path d="M5435 4293 c-16 -9 -59 -40 -95 -68 -82 -66 -201 -142 -235 -151 -21
-5 -25 -12 -23 -32 5 -39 22 -37 80 12 29 25 77 62 107 83 30 21 72 54 95 74
23 19 61 49 85 67 47 33 38 43 -14 15z"/>
<path d="M2512 4050 c0 -14 2 -19 5 -12 2 6 2 18 0 25 -3 6 -5 1 -5 -13z"/>
<path d="M2502 3950 c0 -14 2 -19 5 -12 2 6 2 18 0 25 -3 6 -5 1 -5 -13z"/>
<path d="M2492 3830 c0 -19 2 -27 5 -17 2 9 2 25 0 35 -3 9 -5 1 -5 -18z"/>
<path d="M6696 3368 c-10 -14 -12 -26 -6 -32 5 -5 92 -11 193 -14 163 -4 185
-3 200 12 9 10 17 26 17 37 0 18 -9 19 -194 19 -190 0 -195 -1 -210 -22z"/>
<path d="M10574 3328 c-28 -24 -93 -78 -145 -120 -102 -83 -273 -241 -567
-523 -314 -302 -418 -383 -497 -390 -11 -1 -43 -6 -71 -10 -46 -6 -52 -5 -56
13 -3 11 -2 26 3 33 20 33 9 38 -37 19 -53 -23 -70 -25 -77 -7 -3 7 -24 13
-51 15 -48 2 -99 27 -93 45 2 6 11 14 20 19 9 4 25 12 35 17 11 5 16 17 14 34
-2 17 4 30 20 41 46 33 -10 44 -237 45 -88 1 -181 7 -225 16 -51 10 -91 12
-125 7 -37 -6 -59 -4 -82 6 -31 15 -63 11 -63 -7 0 -5 8 -12 18 -14 9 -3 2 -5
-16 -6 -18 0 -41 4 -51 11 -10 6 -27 8 -37 4 -18 -7 -18 -8 1 -18 11 -6 42
-12 70 -13 93 -3 210 -16 240 -27 17 -6 44 -21 60 -33 55 -40 260 -161 295
-175 19 -7 40 -17 46 -22 6 -4 48 -21 92 -37 44 -16 97 -40 116 -54 62 -42
186 -151 186 -163 0 -23 -80 -81 -182 -131 -123 -61 -306 -143 -319 -143 -4 0
-32 -11 -61 -23 -29 -13 -66 -29 -83 -35 -67 -24 -222 -85 -250 -98 -16 -7
-91 -29 -165 -48 -74 -19 -155 -43 -180 -52 -60 -22 -233 -30 -321 -14 -124
22 -261 17 -379 -14 -101 -27 -234 -71 -255 -86 -23 -16 -170 -56 -192 -52 -7
2 -55 -17 -106 -42 -52 -24 -116 -49 -143 -55 -117 -24 -135 -29 -186 -49 -29
-11 -75 -28 -102 -38 -35 -13 -76 -42 -134 -98 -55 -52 -76 -77 -61 -72 13 4
40 9 59 13 19 3 42 11 50 18 8 7 33 15 55 18 22 4 34 4 28 1 -7 -3 -13 -14
-13 -25 0 -21 -15 -25 -26 -8 -4 7 -12 -1 -20 -18 -10 -19 -36 -39 -77 -60
-34 -18 -67 -41 -74 -51 -14 -24 -136 -92 -164 -92 -31 0 -18 -21 34 -56 26
-17 44 -34 40 -37 -9 -9 -5 -9 49 7 46 14 117 56 149 87 9 9 41 35 72 58 41
31 61 40 78 36 19 -4 35 5 70 37 48 45 82 68 99 68 20 0 9 -19 -20 -37 -42
-24 -40 -47 3 -37 17 4 43 7 56 6 32 -3 45 8 27 21 -8 7 -18 24 -21 38 -5 22
-1 30 23 47 16 12 31 19 34 17 8 -8 116 43 125 58 4 8 25 22 46 30 20 9 37 20
37 26 0 5 14 12 30 16 17 4 35 15 40 26 6 10 17 19 26 19 8 0 17 6 20 14 3 8
20 20 37 27 18 7 53 28 79 47 39 27 51 31 67 23 34 -19 65 -12 121 24 55 36
106 45 127 24 13 -13 47 -33 81 -48 12 -6 22 -17 22 -25 0 -19 24 -32 77 -41
28 -4 44 -13 48 -25 3 -10 17 -21 30 -24 15 -4 25 -14 25 -24 0 -10 6 -27 14
-38 10 -13 13 -33 9 -62 -5 -40 -4 -42 20 -42 14 0 29 -4 32 -10 3 -5 24 -14
45 -20 25 -7 46 -21 57 -38 27 -42 78 -87 97 -84 9 2 16 -2 16 -10 0 -14 63
-68 79 -68 6 0 11 -7 11 -15 0 -8 -6 -15 -14 -15 -28 0 -66 -41 -66 -71 0 -27
2 -29 40 -29 35 0 41 -4 56 -35 9 -20 29 -42 44 -50 16 -8 30 -20 32 -27 2 -6
15 15 28 48 13 32 38 86 57 120 18 33 33 66 33 71 0 6 -12 15 -28 21 -16 5
-36 25 -47 46 -11 20 -27 39 -37 42 -11 3 -18 18 -20 42 -2 26 -8 38 -23 42
-38 10 -75 42 -74 64 0 11 3 15 6 9 2 -7 13 -13 22 -13 16 0 17 4 7 35 -7 21
-16 33 -23 30 -7 -2 -13 2 -13 10 0 9 6 12 15 9 10 -4 15 0 15 12 -1 26 -26
58 -35 45 -3 -6 -15 -11 -26 -11 -30 0 -18 24 14 28 18 2 24 8 20 18 -3 9 2
14 15 14 20 0 21 4 16 67 -3 37 -10 71 -17 76 -7 4 18 7 55 5 43 -2 69 1 72 8
2 6 32 20 66 30 55 16 61 20 58 43 -3 22 4 29 45 50 36 17 46 26 37 35 -8 8 8
14 62 21 61 8 75 14 83 32 5 13 16 26 25 29 31 13 119 31 163 33 10 1 21 9 24
19 9 24 23 32 60 32 24 0 37 7 49 25 13 20 19 23 31 14 10 -9 17 -9 25 -1 7 7
20 12 30 12 10 0 18 5 18 10 0 6 15 10 33 11 45 1 82 14 80 27 -2 6 14 14 35
18 46 8 62 17 135 70 36 26 53 44 45 47 -7 3 -3 6 9 6 13 1 24 10 28 22 5 14
13 19 25 16 21 -5 63 20 55 32 -2 5 8 11 23 14 26 5 41 25 56 70 5 14 9 15 24
6 16 -10 25 -6 63 32 41 41 44 42 47 21 2 -12 7 -20 12 -17 5 3 7 12 4 19 -4
10 3 14 28 13 29 -2 33 1 31 21 -3 28 43 55 57 33 4 -8 13 -10 19 -7 16 10 14
26 -4 26 -8 0 -15 9 -15 20 0 13 9 21 28 25 15 4 35 10 45 16 14 8 17 5 17
-15 0 -19 4 -23 20 -19 11 3 20 9 20 14 0 18 61 39 108 37 36 -2 56 3 79 20
17 12 38 22 47 22 17 0 17 1 21 39 3 31 32 53 65 49 17 -2 30 5 42 22 15 21
18 22 24 7 8 -21 24 -22 24 -2 0 19 69 52 78 38 4 -6 16 -13 27 -15 15 -2 20
2 19 20 0 18 5 22 33 24 18 0 39 1 46 2 6 1 11 -7 9 -16 -2 -11 3 -18 13 -18
9 0 15 9 15 23 0 30 50 57 105 57 33 0 45 -4 48 -17 3 -10 5 23 6 74 1 81 -1
92 -18 98 -21 6 -67 -9 -72 -24 -2 -5 -49 -17 -104 -25 -55 -8 -170 -26 -255
-39 -91 -15 -159 -21 -164 -16 -13 12 -22 11 -38 -4 -7 -7 -53 -43 -103 -80
-49 -37 -121 -97 -159 -132 -38 -36 -75 -65 -81 -65 -6 0 -24 -13 -40 -30 -16
-16 -35 -30 -42 -30 -7 0 -13 -4 -13 -10 0 -5 -5 -10 -11 -10 -6 0 -29 -16
-51 -35 -21 -20 -44 -33 -49 -29 -6 4 4 19 25 35 19 17 59 55 88 86 334 356
653 660 963 917 l30 24 -21 29 c-31 41 -53 39 -110 -9z m-1719 -859 c43 -23
84 -65 85 -88 0 -8 -6 -11 -16 -7 -9 3 -19 6 -23 6 -13 0 -80 56 -102 84 -19
25 -19 26 -2 26 10 0 36 -9 58 -21z m1125 -119 c0 -5 -2 -10 -4 -10 -3 0 -8 5
-11 10 -3 6 -1 10 4 10 6 0 11 -4 11 -10z m-653 -436 c-3 -3 -12 -4 -19 -1 -8
3 -5 6 6 6 11 1 17 -2 13 -5z m-2467 -734 c0 -5 -4 -10 -10 -10 -5 0 -10 5
-10 10 0 6 5 10 10 10 6 0 10 -4 10 -10z m-376 -46 c-7 -3 -10 -14 -7 -24 3
-11 1 -20 -5 -20 -6 0 -8 -10 -4 -22 4 -16 2 -19 -9 -12 -8 5 -20 9 -28 9 -23
0 -24 23 -2 30 12 3 26 15 31 26 6 10 16 19 23 18 8 0 9 -2 1 -5z m-94 -64 c0
-5 -5 -10 -11 -10 -5 0 -7 5 -4 10 3 6 8 10 11 10 2 0 4 -4 4 -10z m1726 -71
c3 -6 2 -15 -4 -21 -7 -7 -14 -3 -21 11 -10 17 -9 21 3 21 8 0 18 -5 22 -11z
m-69 -15 c-3 -3 -12 -4 -19 -1 -8 3 -5 6 6 6 11 1 17 -2 13 -5z"/>
<path d="M6248 3267 c-96 -54 -148 -95 -148 -117 0 -11 12 -30 27 -43 113 -94
185 -157 229 -199 46 -44 59 -51 120 -63 119 -22 198 -26 216 -13 18 15 128
162 128 171 0 4 -17 7 -37 7 -42 1 -212 24 -255 35 -24 6 -28 12 -28 45 0 42
-16 66 -104 158 -29 29 -59 52 -71 52 -11 0 -46 -15 -77 -33z m147 -136 l40
-6 3 -78 c2 -52 -1 -77 -8 -77 -14 0 -190 161 -190 173 0 8 64 3 155 -12z"/>
<path d="M6631 3286 c-36 -43 25 -56 261 -56 l127 0 21 30 21 30 -143 0 c-79
0 -172 3 -208 6 -53 5 -68 3 -79 -10z"/>
<path d="M6594 3202 c-22 -21 -17 -39 14 -47 15 -4 92 -11 172 -14 143 -6 145
-6 173 18 27 23 28 25 11 32 -11 4 -68 8 -129 9 -60 1 -136 5 -169 9 -44 6
-62 4 -72 -7z"/>
<path d="M10702 3157 c-26 -24 -58 -54 -72 -66 l-25 -23 25 12 c14 7 27 16 30
19 3 3 22 19 43 35 33 24 42 27 63 17 18 -8 24 -8 24 2 -1 14 -24 47 -34 47
-4 0 -28 -19 -54 -43z"/>
<path d="M6532 3106 c-6 -14 -8 -27 -4 -30 14 -8 231 -36 281 -36 34 0 53 5
64 18 23 26 21 42 -5 43 -32 1 -223 18 -279 25 -41 5 -46 4 -57 -20z"/>
<path d="M2370 3090 c0 -20 28 -65 60 -95 l31 -30 -19 43 c-11 24 -25 49 -31
55 -6 6 -11 17 -11 24 0 7 -7 13 -15 13 -8 0 -15 -5 -15 -10z"/>
<path d="M7805 2898 c4 -12 17 -39 30 -58 20 -30 69 -137 89 -194 6 -18 8 -18
25 -2 25 22 79 23 121 1 34 -17 35 -17 19 1 -9 11 -19 32 -23 47 -4 15 -14 31
-24 34 -9 4 -23 15 -30 25 -7 10 -17 16 -22 13 -8 -5 -24 11 -116 112 -16 17
-40 34 -52 38 -21 6 -23 4 -17 -17z"/>
<path d="M5950 2775 c0 -9 7 -30 16 -48 l17 -31 23 28 c13 15 24 35 24 44 0
12 -6 8 -19 -12 l-19 -29 -16 32 c-18 34 -26 39 -26 16z"/>
<path d="M6076 2773 c-3 -3 -6 -24 -6 -47 0 -45 14 -39 23 11 6 31 -3 50 -17
36z"/>
<path d="M6137 2773 c-4 -3 -7 -23 -7 -44 0 -41 12 -50 63 -48 l32 1 -32 9
c-40 12 -52 29 -21 29 21 1 22 2 6 14 -27 20 -22 26 20 27 30 0 33 2 17 9 -24
11 -69 12 -78 3z"/>
<path d="M6255 2761 c3 -6 13 -11 21 -11 10 0 14 -12 14 -40 0 -22 5 -40 10
-40 6 0 10 16 10 35 0 29 4 35 21 35 43 0 11 25 -35 28 -32 2 -46 0 -41 -7z"/>
<path d="M6370 2705 c0 -25 5 -45 10 -45 6 0 10 9 10 20 0 27 14 25 34 -5 21
-32 36 -24 36 21 0 34 -13 46 -24 22 -4 -9 -10 -6 -22 10 -27 37 -44 28 -44
-23z"/>
<path d="M6502 2705 c-19 -41 -15 -53 13 -47 14 2 32 -1 40 -8 20 -17 19 0 -2
45 -20 41 -35 44 -51 10z"/>
<path d="M6600 2691 c0 -17 5 -33 10 -36 6 -3 10 1 10 11 0 15 2 15 24 1 18
-12 26 -13 35 -4 9 9 14 8 21 -3 7 -11 10 -7 10 16 0 42 -11 49 -33 22 l-18
-23 -16 23 c-22 32 -43 28 -43 -7z"/>
<path d="M6809 2703 c-2 -16 3 -58 8 -67 3 -5 10 -1 15 8 5 9 22 16 39 16 26
0 30 3 27 23 -2 18 -10 23 -45 25 -24 2 -43 0 -44 -5z m61 -23 c0 -5 -9 -10
-20 -10 -11 0 -20 5 -20 10 0 6 9 10 20 10 11 0 20 -4 20 -10z"/>
<path d="M6934 2701 c-9 -9 -3 -68 8 -79 7 -7 32 -12 56 -12 l43 0 -3 48 -3
47 -48 0 c-26 0 -50 -1 -53 -4z m86 -41 c0 -27 -3 -30 -29 -30 -21 0 -32 6
-36 20 -9 28 2 40 36 40 26 0 29 -3 29 -30z"/>
<path d="M7084 2695 c-9 -23 3 -45 26 -45 12 0 18 -4 15 -10 -3 -5 -15 -10
-26 -10 -10 0 -19 -4 -19 -10 0 -5 14 -10 30 -10 27 0 30 3 30 30 0 17 -7 33
-17 39 -17 10 -17 10 0 11 9 0 17 5 17 10 0 16 -50 12 -56 -5z"/>
<path d="M7156 2701 c-7 -11 22 -23 35 -15 5 3 7 10 4 15 -8 12 -32 12 -39 0z"/>
<path d="M2693 2693 c-7 -2 -13 -12 -13 -20 0 -9 6 -13 14 -10 10 4 13 1 9 -9
-7 -19 11 -18 28 3 11 13 11 17 1 20 -6 3 -10 9 -6 14 5 10 -12 11 -33 2z"/>
<path d="M2745 2620 c-3 -5 -2 -10 4 -10 5 0 13 5 16 10 3 6 2 10 -4 10 -5 0
-13 -4 -16 -10z"/>
<path d="M2771 2583 c-18 -20 -4 -31 15 -11 9 9 12 18 7 21 -4 3 -14 -2 -22
-10z"/>
<path d="M2798 2563 c-20 -5 -32 -33 -14 -33 7 0 21 9 31 20 18 20 15 22 -17
13z"/>
<path d="M10560 2545 c0 -9 6 -12 15 -9 8 4 15 10 15 15 0 5 -7 9 -15 9 -8 0
-15 -7 -15 -15z"/>
<path d="M2840 2475 c-20 -24 -5 -28 21 -6 19 16 20 20 8 21 -9 0 -22 -7 -29
-15z"/>
<path d="M4082 1853 c4 -20 18 -26 37 -14 18 12 5 31 -20 31 -14 0 -19 -6 -17
-17z"/>
<path d="M4030 1826 c0 -8 7 -16 15 -20 10 -4 15 1 15 14 0 11 -7 20 -15 20
-8 0 -15 -6 -15 -14z"/>
<path d="M4070 1790 c0 -5 5 -10 11 -10 5 0 7 5 4 10 -3 6 -8 10 -11 10 -2 0
-4 -4 -4 -10z"/>
<path d="M8272 1018 c2 -6 10 -14 16 -16 7 -2 10 2 6 12 -7 18 -28 22 -22 4z"/>
<path d="M3305 1003 c-36 -5 -58 -23 -29 -24 10 -1 34 -2 52 -4 19 -2 39 4 47
12 9 8 23 12 35 8 11 -4 20 -2 20 4 0 11 -63 13 -125 4z"/>
<path d="M3440 1006 c0 -10 28 -13 41 -5 10 6 7 9 -13 9 -16 0 -28 -2 -28 -4z"/>
<path d="M7291 965 c-29 -18 -67 -37 -83 -40 -16 -4 -68 -27 -114 -51 -47 -24
-93 -44 -102 -44 -9 0 -33 -12 -54 -26 -32 -23 -90 -41 -148 -47 -8 -1 -18 -9
-22 -18 -3 -9 -43 -37 -87 -64 -45 -26 -86 -56 -92 -66 -5 -10 -14 -19 -20
-19 -6 0 -25 -10 -42 -22 -18 -13 -48 -31 -67 -42 -19 -10 -44 -26 -55 -36
-27 -24 -132 -71 -175 -79 -23 -4 -36 -13 -38 -25 -6 -31 -34 -54 -80 -68 -26
-8 -58 -27 -76 -46 -49 -53 -110 -85 -146 -77 -23 5 -30 3 -30 -9 0 -8 9 -18
20 -21 14 -4 20 -15 20 -35 0 -22 6 -29 27 -35 20 -5 31 -2 40 12 45 62 78 93
111 104 20 7 69 27 109 46 51 24 80 32 98 27 25 -6 36 10 13 19 -7 3 -3 6 9 6
12 1 25 6 28 11 4 6 21 17 38 25 64 29 132 73 132 87 0 7 9 12 19 10 14 -3 17
1 12 13 -4 12 -1 16 12 13 9 -2 25 3 35 12 10 8 33 24 51 35 19 11 65 41 103
66 112 76 279 172 441 255 146 74 208 121 199 148 -7 21 -32 16 -86 -19z"/>
<path d="M1820 969 c0 -5 5 -7 10 -4 6 3 10 8 10 11 0 2 -4 4 -10 4 -5 0 -10
-5 -10 -11z"/>
<path d="M1861 956 c12 -10 59 -15 59 -6 0 5 -14 10 -32 10 -17 0 -29 -2 -27
-4z"/>
<path d="M1941 946 c-19 -23 -2 -46 33 -46 18 0 38 -6 44 -12 10 -10 15 -10
22 2 13 20 4 28 -25 23 -13 -3 -32 -2 -41 1 -15 6 -15 8 1 26 17 19 17 20 -2
20 -11 0 -26 -6 -32 -14z"/>
<path d="M6704 875 c-11 -28 5 -62 31 -67 30 -6 32 6 5 50 -22 36 -28 39 -36
17z"/>
<path d="M3128 773 c6 -2 18 -2 25 0 6 3 1 5 -13 5 -14 0 -19 -2 -12 -5z"/>
<path d="M3622 758 c-14 -14 -16 -38 -3 -38 8 0 23 41 17 47 -1 1 -8 -3 -14
-9z"/>
<path d="M3680 744 c0 -8 5 -12 10 -9 6 3 10 10 10 16 0 5 -4 9 -10 9 -5 0
-10 -7 -10 -16z"/>
<path d="M3475 740 c3 -5 10 -10 16 -10 5 0 9 5 9 10 0 6 -7 10 -16 10 -8 0
-12 -4 -9 -10z"/>
<path d="M3540 736 c0 -24 15 -26 28 -5 11 16 9 19 -8 19 -11 0 -20 -6 -20
-14z"/>
<path d="M4160 740 c0 -5 4 -10 9 -10 6 0 13 5 16 10 3 6 -1 10 -9 10 -9 0
-16 -4 -16 -10z"/>
<path d="M3451 735 c-1 -15 25 -46 32 -38 12 11 8 23 -7 23 -8 0 -17 6 -19 13
-3 6 -6 8 -6 2z"/>
<path d="M2958 693 c7 -3 16 -2 19 1 4 3 -2 6 -13 5 -11 0 -14 -3 -6 -6z"/>
<path d="M3321 667 c2 -1 12 -9 22 -16 15 -12 17 -12 11 3 -3 9 -13 16 -22 16
-8 0 -13 -1 -11 -3z"/>
<path d="M3380 666 c0 -2 7 -9 15 -16 12 -10 15 -10 15 4 0 9 -7 16 -15 16 -8
0 -15 -2 -15 -4z"/>
<path d="M7700 649 c-73 -19 -167 -51 -202 -70 -10 -5 -26 -9 -37 -9 -10 0
-21 -7 -25 -15 -3 -8 -12 -15 -21 -15 -8 0 -15 -4 -15 -9 0 -5 -33 -33 -72
-62 -40 -30 -75 -56 -78 -60 -7 -9 -139 -89 -146 -89 -3 0 -18 -8 -32 -19 -44
-31 -222 -117 -302 -147 -267 -97 -310 -105 -350 -69 -9 8 -24 15 -32 15 -28
0 -48 12 -48 28 0 8 -3 13 -6 9 -4 -3 -1 -20 5 -38 10 -28 9 -30 -5 -18 -13
10 -17 10 -25 -2 -14 -22 -11 -29 14 -29 13 0 32 -6 42 -14 17 -12 13 -13 -35
-15 -61 -1 -114 25 -124 62 -10 39 -51 81 -71 73 -16 -6 -15 -10 15 -39 38
-37 53 -71 44 -99 -6 -19 -2 -20 133 -14 76 4 154 7 173 8 19 1 50 -2 68 -7
24 -6 32 -4 32 6 0 14 43 39 66 39 7 0 21 -11 32 -25 19 -24 81 -38 67 -15 -3
5 -1 10 4 10 6 0 11 -4 11 -10 0 -5 14 -10 31 -10 26 0 30 3 24 17 -17 40 -16
63 1 86 11 13 21 23 24 23 3 1 23 12 45 26 22 14 114 63 205 110 212 110 304
159 310 168 11 16 202 141 207 136 3 -3 24 7 47 23 22 15 69 36 104 46 35 10
65 22 68 27 9 14 -68 8 -146 -13z"/>
<path d="M4570 575 c0 -8 7 -15 16 -15 14 0 14 3 4 15 -7 8 -14 15 -16 15 -2
0 -4 -7 -4 -15z"/>
<path d="M4728 583 c7 -3 16 -2 19 1 4 3 -2 6 -13 5 -11 0 -14 -3 -6 -6z"/>
<path d="M7 574 c-3 -3 -6 -134 -7 -291 l-1 -284 216 2 c118 1 218 6 221 10 3
5 0 8 -8 7 -7 -2 -12 3 -10 10 1 8 -2 11 -8 7 -6 -3 -7 -11 -4 -17 4 -6 2 -8
-4 -4 -6 3 -9 16 -7 27 3 16 1 18 -9 10 -11 -9 -13 -6 -11 18 1 18 -2 29 -9
28 -6 -1 -10 4 -8 11 1 8 -2 11 -8 7 -8 -5 -6 -13 5 -25 11 -12 13 -20 5 -25
-6 -4 -9 -1 -8 7 2 7 -2 12 -8 11 -7 -1 -10 10 -9 28 2 23 0 27 -10 19 -10 -8
-12 -4 -10 19 1 18 -2 29 -9 28 -6 -1 -10 4 -8 11 1 8 -2 11 -8 7 -8 -5 -6
-13 5 -25 11 -12 13 -20 5 -25 -6 -4 -9 -1 -8 7 2 7 -2 12 -8 11 -7 -1 -10 10
-9 28 2 23 0 27 -10 19 -10 -8 -12 -4 -10 19 1 18 -2 29 -9 28 -6 -1 -10 4 -8
11 1 8 -2 11 -8 7 -8 -5 -6 -13 5 -25 11 -12 13 -20 5 -25 -6 -4 -9 -1 -8 7 2
7 -2 12 -8 11 -7 -1 -10 10 -9 28 2 23 0 27 -10 19 -10 -8 -12 -4 -10 19 1 18
-2 29 -9 28 -6 -1 -10 4 -8 11 1 8 -2 11 -8 7 -8 -5 -6 -13 5 -25 11 -12 13
-20 5 -25 -6 -4 -9 -1 -8 7 2 7 -2 12 -8 11 -7 -1 -10 10 -9 28 2 23 0 27 -10
19 -10 -8 -12 -4 -10 19 1 18 -2 29 -9 28 -6 -1 -10 4 -8 11 1 8 -2 11 -8 7
-8 -5 -6 -13 5 -25 11 -12 13 -20 5 -25 -6 -4 -9 -1 -8 7 2 7 -2 12 -8 11 -7
-1 -10 13 -9 37 1 24 -2 38 -9 37 -6 -1 -10 4 -8 11 1 8 -2 11 -8 7 -8 -5 -6
-13 5 -25 11 -12 13 -20 5 -25 -6 -4 -9 -1 -8 7 2 7 -2 12 -8 11 -7 -1 -10 10
-9 28 2 23 0 27 -10 19 -10 -8 -12 -4 -10 19 1 18 -2 29 -9 28 -6 -1 -10 4 -8
11 2 13 -1 15 -11 6z m18 -33 c3 -5 2 -12 -3 -15 -5 -3 -9 1 -9 9 0 17 3 19
12 6z"/>
<path d="M4340 562 c0 -5 7 -13 16 -16 10 -4 14 -1 12 6 -5 15 -28 23 -28 10z"/>
<path d="M4080 541 c0 -5 5 -13 10 -16 6 -3 10 -2 10 4 0 5 -4 13 -10 16 -5 3
-10 2 -10 -4z"/>
<path d="M4145 540 c3 -5 11 -10 16 -10 6 0 7 5 4 10 -3 6 -11 10 -16 10 -6 0
-7 -4 -4 -10z"/>
<path d="M3706 512 c-3 -6 -1 -14 5 -17 14 -9 20 -2 10 14 -6 8 -11 9 -15 3z"/>
<path d="M3767 509 c7 -7 15 -10 18 -7 3 3 -2 9 -12 12 -14 6 -15 5 -6 -5z"/>
<path d="M7872 508 c-15 -15 -16 -38 -2 -38 6 0 15 -11 20 -25 6 -16 15 -23
24 -19 23 9 27 33 11 65 -16 31 -33 37 -53 17z"/>
<path d="M3608 483 c7 -3 16 -2 19 1 4 3 -2 6 -13 5 -11 0 -14 -3 -6 -6z"/>
<path d="M7980 450 c0 -5 5 -10 10 -10 6 0 10 5 10 10 0 6 -4 10 -10 10 -5 0
-10 -4 -10 -10z"/>
<path d="M8046 351 c-50 -4 -81 -11 -84 -18 -2 -7 -10 -13 -18 -13 -8 0 -14
-6 -14 -12 0 -10 -3 -9 -9 1 -5 7 -14 10 -21 6 -7 -4 -10 -1 -8 11 2 11 -4 20
-14 22 -22 4 -23 -10 -4 -47 15 -27 14 -29 -37 -78 -55 -53 -166 -133 -186
-133 -7 0 -31 -10 -54 -22 -23 -12 -73 -32 -112 -45 l-70 -22 102 0 c81 -1
113 3 155 20 48 18 132 74 182 121 10 9 35 25 55 34 20 9 70 41 113 70 67 46
77 50 81 33 6 -22 30 -25 45 -6 15 18 25 77 14 77 -6 0 -16 1 -24 3 -7 2 -49
1 -92 -2z"/>
<path d="M5770 308 c0 -18 7 -41 14 -51 13 -16 14 -12 13 32 -2 57 -27 75 -27
19z"/>
<path d="M7637 254 c-20 -27 -14 -32 10 -9 8 8 13 19 11 24 -2 5 -11 -2 -21
-15z"/>
<path d="M3488 253 c6 -2 18 -2 25 0 6 3 1 5 -13 5 -14 0 -19 -2 -12 -5z"/>
<path d="M4340 250 c-8 -5 -25 -10 -37 -10 -13 0 -23 -5 -23 -11 0 -7 9 -9 23
-5 12 3 53 9 90 12 43 5 63 10 55 15 -18 12 -90 11 -108 -1z"/>
<path d="M4533 253 c15 -2 37 -2 50 0 12 2 0 4 -28 4 -27 0 -38 -2 -22 -4z"/>
<path d="M3210 239 c0 -8 19 -10 61 -6 83 7 87 17 6 17 -43 0 -67 -4 -67 -11z"/>
<path d="M4236 223 c-7 -7 -98 -19 -216 -27 -241 -17 -335 -27 -405 -42 -66
-15 -137 -18 -405 -20 -487 -4 -464 -2 -795 -72 -77 -16 -161 -33 -187 -36
-144 -21 -13 -26 682 -26 l740 0 -2 30 c-2 30 -22 41 -31 18 -4 -10 -8 -9 -16
2 -13 18 -7 24 46 39 34 9 47 9 63 -1 11 -7 20 -16 20 -20 0 -4 6 -5 13 -2 8
3 20 -3 28 -12 11 -14 11 -18 -6 -30 -18 -13 -18 -14 6 -14 14 0 34 6 45 14
15 12 17 17 7 27 -20 20 -15 30 12 23 16 -4 30 0 40 10 9 9 13 16 9 16 -5 0
-3 5 4 12 6 6 39 15 72 19 41 5 66 13 74 25 13 17 24 17 109 -2 20 -5 27 -3
27 8 0 8 20 23 45 34 25 10 45 22 45 26 0 10 -14 10 -24 1z m-396 -112 c0 -5
-13 -11 -29 -14 -16 -3 -40 -9 -55 -13 -41 -10 -30 11 12 23 48 14 72 15 72 4z"/>
<path d="M7631 190 c0 -19 3 -29 6 -22 2 6 11 12 19 12 8 0 14 7 14 16 0 8 -5
12 -11 8 -6 -3 -15 0 -20 7 -6 10 -8 3 -8 -21z"/>
<path d="M2420 190 c-8 -6 -40 -10 -70 -10 -165 2 -191 0 -185 -10 3 -5 20
-10 36 -10 18 0 28 -4 24 -10 -8 -13 54 -13 260 0 221 13 395 32 389 42 -7 12
-436 10 -454 -2z"/>
<path d="M3925 110 c3 -5 15 -10 26 -10 10 0 19 5 19 10 0 6 -12 10 -26 10
-14 0 -23 -4 -19 -10z"/>
<path d="M6845 90 c4 -6 11 -8 16 -5 14 9 11 15 -7 15 -8 0 -12 -5 -9 -10z"/>
<path d="M3876 30 l-14 -30 34 0 c38 0 54 21 34 45 -19 23 -37 18 -54 -15z"/>
<path d="M3670 10 c0 -5 7 -10 15 -10 8 0 15 5 15 10 0 6 -7 10 -15 10 -8 0
-15 -4 -15 -10z"/>
</g>
</svg>
